<?xml version="1.0" encoding="utf-8"?>
<!-- Generator: Adobe Illustrator 16.0.0, SVG Export Plug-In . SVG Version: 6.00 Build 0)  -->
<!DOCTYPE svg PUBLIC "-//W3C//DTD SVG 1.1//EN" "http://www.w3.org/Graphics/SVG/1.1/DTD/svg11.dtd">
<svg version="1.1" id="Layer_1" xmlns="http://www.w3.org/2000/svg" xmlns:xlink="http://www.w3.org/1999/xlink" x="0px" y="0px"
	 width="128px" height="128px" viewBox="0 0 128 128" enable-background="new 0 0 128 128" xml:space="preserve">
<g>
	<g>
		<g>
			<path fill="#282D33" d="M127.962,88.878H0v-75.37c0-2.998,2.42-5.437,5.396-5.437h117.168c2.977,0,5.397,2.438,5.397,5.437
				V88.878z M4,84.878h119.962v-71.37c0-0.792-0.627-1.437-1.397-1.437H5.396C4.626,12.071,4,12.716,4,13.508V84.878z"/>
		</g>
		<g>
			<path fill="#282D33" d="M117.889,78.685H10.073V18.264h107.815V78.685z M14.073,74.685h99.815V22.264H14.073V74.685z"/>
		</g>
		<g>
			<path fill="#282D33" d="M122.797,103.673H6.065c-3.055,0-6.054-3.114-6.054-6.287v-12.58H128V97.56
				C128,100.564,126.054,103.673,122.797,103.673z M4.011,88.806v8.58c0,0.962,1.19,2.287,2.054,2.287h116.732
				c0.688,0,1.203-1.115,1.203-2.113v-8.754H4.011z"/>
		</g>
		<g>
			<path fill="#282D33" d="M45.286,119.912l-1.607-3.662c1.354-0.594,2.422-1.101,3.01-1.427l0.177-0.1
				c0.249-0.139,0.559-0.312,0.624-0.378c0.04-0.052,0.194-0.328,0.451-1.634c0.3-1.535,0.263-4.294,0.231-6.728
				c-0.022-1.679-0.043-3.265,0.048-4.388l3.987,0.322c-0.076,0.937-0.056,2.431-0.035,4.012c0.036,2.757,0.074,5.607-0.306,7.55
				c-0.581,2.962-1.205,3.708-3.052,4.737l-0.174,0.098C47.742,118.813,46.321,119.458,45.286,119.912z"/>
		</g>
		<g>
			<path fill="#282D33" d="M82.589,119.929c-1.043-0.458-2.475-1.109-3.374-1.606l-0.117-0.065
				c-1.958-1.099-2.468-1.902-3.029-4.777c-0.379-1.94-0.343-4.739-0.308-7.446c0.021-1.56,0.04-3.032-0.036-3.972l3.986-0.324
				c0.092,1.127,0.071,2.691,0.05,4.348c-0.031,2.388-0.066,5.094,0.233,6.628c0.246,1.262,0.384,1.601,0.444,1.689
				c0.059,0.053,0.367,0.226,0.616,0.365l0.106,0.061c0.579,0.319,1.691,0.847,3.039,1.44L82.589,119.929z"/>
		</g>
		<g>
			<rect x="41.08" y="115.869" fill="#282D33" width="45.863" height="4"/>
		</g>
	</g>
	<g>
		<polygon fill="#282D33" points="33.655,73.019 27.629,53.486 10.761,53.486 10.761,49.486 30.581,49.486 33.215,58.026 
			42.208,21.388 52.95,57.558 54.325,49.486 68.436,49.486 77.625,21.589 86.175,58.878 90.728,47.614 117.861,47.614 
			117.861,51.614 93.425,51.614 85.118,72.167 76.934,36.473 71.33,53.486 57.701,53.486 55.45,66.698 51.561,66.932 42.575,36.674 
					"/>
	</g>
</g>
</svg>
